<?xml version="1.0" standalone="no"?>
<!DOCTYPE svg PUBLIC "-//W3C//DTD SVG 20010904//EN"
 "http://www.w3.org/TR/2001/REC-SVG-20010904/DTD/svg10.dtd">
<svg version="1.0" xmlns="http://www.w3.org/2000/svg"
 width="512.000000pt" height="512.000000pt" viewBox="0 0 512.000000 512.000000"
 preserveAspectRatio="xMidYMid meet">
<metadata>
Created by potrace 1.11, written by Peter Selinger 2001-2013
</metadata>
<g transform="translate(0.000000,512.000000) scale(0.100000,-0.100000)"
fill="#000000" stroke="none">
<path d="M1222 4107 c-44 -53 -109 -319 -159 -655 -3 -18 -10 -35 -15 -38 -6
-4 -51 -16 -102 -28 -83 -20 -91 -24 -94 -47 -5 -43 16 -51 97 -38 39 7 74 9
77 6 3 -3 -18 -120 -46 -260 -30 -146 -50 -266 -46 -280 6 -27 35 -39 59 -26
14 8 33 73 52 179 5 24 45 223 50 245 1 6 5 28 9 50 23 121 21 118 121 129
254 28 226 33 246 -44 9 -36 31 -126 49 -200 42 -176 72 -267 121 -367 49 -99
79 -132 114 -125 28 5 52 44 49 80 -1 12 -2 28 -3 36 0 8 -10 17 -20 21 -22 7
-49 65 -103 225 -35 104 -62 201 -159 560 -105 388 -197 590 -269 590 -10 0
-22 -6 -28 -13z m123 -360 c23 -78 52 -175 63 -214 l20 -73 -26 -1 c-58 -2
-131 -9 -188 -18 -32 -5 -60 -8 -61 -7 -1 1 5 40 13 86 9 47 17 96 18 110 11
87 31 182 58 275 l21 70 19 -43 c11 -24 39 -108 63 -185z"/>
<path d="M2449 4083 c-1 -5 -3 -57 -5 -118 -9 -263 -72 -419 -191 -475 -33
-15 -74 -24 -128 -27 -82 -5 -161 7 -159 23 1 5 5 63 8 129 4 66 9 138 11 160
27 279 27 297 -2 301 -12 2 -24 0 -28 -5 -7 -13 -42 -222 -50 -306 -4 -38 -9
-78 -11 -87 -1 -10 -6 -59 -10 -110 -9 -132 -9 -129 -29 -168 -24 -46 -24
-200 0 -390 4 -35 44 -241 51 -261 7 -25 43 -30 63 -10 19 19 20 90 6 361 -12
235 -12 280 1 291 7 6 35 7 66 4 105 -13 138 -13 189 0 72 19 141 69 183 133
l36 55 1 -59 c1 -32 2 -77 4 -99 1 -22 5 -92 9 -156 4 -64 8 -132 11 -150 2
-19 6 -65 10 -104 6 -71 12 -119 20 -165 3 -14 7 -47 10 -75 4 -27 8 -58 11
-67 3 -9 7 -27 9 -40 27 -139 36 -155 81 -144 26 7 26 7 20 84 -3 42 -8 91
-10 107 -2 17 -6 61 -10 98 -4 37 -9 76 -11 85 -1 9 -6 44 -9 77 -4 33 -9 74
-11 90 -2 17 -7 64 -10 105 -4 41 -8 81 -10 88 -3 7 -7 52 -11 100 -3 48 -8
89 -9 92 -2 4 -7 51 -10 105 -4 55 -9 116 -11 135 -2 19 -6 112 -10 205 -3 94
-7 176 -9 183 -5 13 -54 17 -56 5z"/>
<path d="M2893 3909 c-68 -33 -206 -198 -239 -285 -44 -116 24 -176 300 -268
160 -53 219 -83 274 -138 52 -51 75 -99 80 -169 8 -108 -64 -212 -176 -252
-53 -20 -161 -26 -251 -17 -45 5 -58 3 -73 -12 -38 -38 -16 -69 67 -97 165
-55 377 25 474 178 116 183 47 397 -163 503 -32 16 -120 50 -195 74 -165 55
-190 66 -224 99 -47 48 -41 88 35 206 95 150 188 174 332 87 86 -52 108 -12
24 44 -108 71 -189 85 -265 47z"/>
<path d="M4122 2603 c-16 -31 -72 -201 -83 -253 -10 -46 -12 -49 -31 -39 -30
16 -127 5 -176 -20 -59 -30 -84 -73 -79 -134 5 -56 26 -83 78 -98 46 -14 116
9 157 52 28 30 42 29 42 -1 0 -11 14 -35 31 -55 53 -60 150 -75 245 -40 39 15
45 14 115 -9 41 -13 94 -27 119 -30 25 -4 81 -12 125 -19 170 -28 345 -1 345
53 0 34 -51 44 -265 55 -86 4 -217 24 -278 42 -17 4 -16 7 6 36 30 40 67 111
67 130 0 44 -86 63 -167 36 -84 -27 -125 -78 -121 -150 3 -39 1 -43 -25 -50
-116 -32 -144 138 -68 404 12 43 20 85 17 93 -8 20 -43 18 -54 -3z m-122 -363
c13 -13 20 -33 19 -57 0 -21 -3 -32 -6 -25 -7 18 -24 15 -85 -13 -83 -39 -108
-32 -108 29 0 29 25 52 76 70 55 20 81 19 104 -4z"/>
<path d="M3603 2550 c-27 -11 -31 -45 -7 -54 23 -9 64 24 64 52 0 14 -25 15
-57 2z"/>
<path d="M657 2513 c-3 -4 -8 -28 -12 -53 -10 -64 -12 -78 -20 -142 -5 -46
-10 -57 -26 -60 -26 -4 -27 -21 -2 -32 17 -8 19 -20 20 -107 2 -108 5 -119 34
-119 19 0 20 5 17 107 l-3 107 41 8 c39 8 84 39 84 57 0 18 -31 20 -71 6 -23
-8 -44 -15 -47 -15 -4 0 4 171 10 224 3 19 -16 34 -25 19z"/>
<path d="M1336 2481 c-9 -17 -23 -79 -32 -138 -8 -60 -19 -110 -25 -111 -27
-10 -130 -86 -169 -126 -24 -25 -47 -43 -50 -40 -2 3 -5 17 -6 32 -4 82 -17
168 -27 174 -7 4 -14 2 -16 -5 -2 -7 -12 -36 -23 -65 -58 -157 -154 -147 -146
16 2 53 0 67 -11 67 -35 0 -49 -181 -18 -228 34 -52 110 -44 159 17 17 20 18
19 18 -45 0 -52 -5 -76 -25 -111 -57 -102 -77 -205 -76 -388 0 -69 3 -136 5
-150 2 -14 7 -61 11 -105 4 -44 11 -88 16 -98 32 -59 105 40 128 173 5 30 9
120 9 200 0 80 0 201 1 270 l1 125 33 35 c29 31 64 64 161 150 l28 25 -6 -25
c-3 -14 -8 -51 -11 -82 -4 -50 -3 -59 14 -68 32 -17 38 2 66 207 3 18 8 57 11
85 3 29 10 72 14 95 9 49 4 123 -9 136 -6 6 -16 -3 -25 -22z m-351 -1110 c-4
-35 -10 -59 -14 -52 -21 33 -21 353 0 431 14 54 14 52 17 -130 2 -102 0 -214
-3 -249z"/>
<path d="M260 2419 c-45 -6 -99 -24 -134 -45 -41 -25 11 -101 89 -128 22 -8
78 -20 125 -27 145 -20 200 -64 168 -133 -33 -69 -157 -92 -289 -53 -56 16
-71 18 -84 7 -27 -22 -16 -41 41 -67 41 -19 77 -26 134 -29 174 -7 282 61 276
175 -4 94 -44 122 -219 152 -109 19 -178 44 -178 63 0 18 85 37 148 33 46 -3
66 -1 75 10 28 34 -52 56 -152 42z"/>
<path d="M2626 2374 c-105 -28 -207 -92 -252 -159 -61 -92 32 -218 160 -218
37 0 66 8 106 29 70 37 74 38 67 28 -2 -5 -8 -65 -11 -134 -12 -228 -17 -284
-37 -380 -26 -128 -37 -244 -33 -370 3 -127 14 -160 48 -160 35 0 43 21 50
135 4 55 9 123 11 150 3 28 7 102 11 165 7 129 36 231 105 377 39 80 121 214
163 263 l21 26 18 -36 c45 -96 169 -73 261 47 l38 50 40 -43 c38 -41 129 -94
161 -94 8 0 17 -7 21 -15 13 -36 48 0 61 65 3 15 16 113 21 165 3 33 8 63 10
67 7 11 -8 38 -22 38 -21 0 -32 -28 -51 -132 -20 -111 -25 -115 -89 -72 -49
34 -69 56 -84 97 -17 47 -25 60 -42 70 -26 17 -45 1 -87 -71 -22 -38 -47 -74
-55 -82 -21 -16 -66 -16 -76 0 -10 17 -3 59 16 87 20 32 17 60 -7 74 -27 14
-60 -9 -139 -94 -87 -94 -161 -198 -236 -332 l-34 -60 5 45 c2 25 7 118 11
207 6 149 5 163 -11 169 -29 12 -50 -10 -55 -59 -9 -75 -66 -120 -147 -115
-95 4 -137 86 -77 149 29 30 99 63 156 74 47 9 67 30 47 49 -12 11 -23 11 -63
0z"/>
<path d="M1493 2235 c-18 -8 -40 -26 -50 -42 -9 -15 -23 -31 -29 -35 -9 -6 -5
-22 14 -58 32 -62 81 -88 162 -88 133 1 332 90 292 130 -10 10 -20 9 -45 -1
-133 -54 -212 -71 -294 -62 -26 2 -13 39 17 51 40 17 80 48 80 64 0 16 -47 43
-86 49 -17 3 -44 -1 -61 -8z"/>
</g>
</svg>
